<?xml version="1.0" encoding="UTF-8"?>
<svg width="434px" height="579px" viewBox="0 0 434 579" version="1.1" xmlns="http://www.w3.org/2000/svg" xmlns:xlink="http://www.w3.org/1999/xlink">
    <!-- Generator: Sketch 41.2 (35397) - http://www.bohemiancoding.com/sketch -->
    <title>Untitled</title>
    <desc>Created with Sketch.</desc>
    <defs></defs>
    <g id="Page-1" stroke="none" stroke-width="1" fill="none" fill-rule="evenodd">
        <path d="M198.458188,334.198063 C189.217125,334.198063 174.752313,297.656688 167.75,312.432438 C164.839625,318.576563 159.989,331.67325 155.3125,342.158063 L155.3125,346.25 C155.3125,353.119042 160.880958,358.6875 167.75,358.6875 L267.25,358.6875 C274.127938,358.6875 279.6875,353.127938 279.6875,346.25 L279.6875,340.454125 C272.660313,324.633625 263.556062,298.415375 254.8125,288.341 C236.927375,267.7445 215.55975,334.198063 198.458188,334.198063 Z M279.6875,197 L155.3125,197 C134.705375,197 118,213.705375 118,234.3125 L118,358.6875 C118,379.284 134.703563,396 155.3125,396 L279.6875,396 C300.284,396 317,379.284 317,358.6875 L317,234.3125 C317,213.703563 300.284,197 279.6875,197 Z M292.125,358.6875 C292.125,365.565438 286.565438,371.125 279.6875,371.125 L155.3125,371.125 C148.443458,371.125 142.875,365.556542 142.875,358.6875 L142.875,234.3125 C142.875,227.447 148.447,221.875 155.3125,221.875 L279.6875,221.875 C286.556542,221.875 292.125,227.443458 292.125,234.3125 L292.125,358.6875 Z M173.96875,271.625 C184.279438,271.625 192.625,263.279437 192.625,252.96875 C192.625,242.658062 184.279438,234.3125 173.96875,234.3125 C163.658062,234.3125 155.3125,242.658062 155.3125,252.96875 C155.3125,263.279437 163.658062,271.625 173.96875,271.625 Z" id="Shape" fill="#C83939"></path>
        <text id="O" font-family="BanglaMN, Bangla MN" font-size="444" font-weight="normal" fill="#C83939">
            <tspan x="0" y="467">O</tspan>
        </text>
    </g>
</svg>